<svg id="visual" viewBox="0 0 1512 100" width="1512" height="100" xmlns="http://www.w3.org/2000/svg" xmlns:xlink="http://www.w3.org/1999/xlink" version="1.1"><path d="M0 49L56 49L56 29L112 29L112 56L168 56L168 27L224 27L224 63L280 63L280 43L336 43L336 71L392 71L392 58L448 58L448 72L504 72L504 30L560 30L560 35L616 35L616 62L672 62L672 63L728 63L728 65L784 65L784 40L840 40L840 72L896 72L896 66L952 66L952 28L1008 28L1008 69L1064 69L1064 57L1120 57L1120 35L1176 35L1176 66L1232 66L1232 57L1288 57L1288 52L1344 52L1344 30L1400 30L1400 43L1456 43L1456 34L1512 34L1512 26L1512 0L1512 0L1456 0L1456 0L1400 0L1400 0L1344 0L1344 0L1288 0L1288 0L1232 0L1232 0L1176 0L1176 0L1120 0L1120 0L1064 0L1064 0L1008 0L1008 0L952 0L952 0L896 0L896 0L840 0L840 0L784 0L784 0L728 0L728 0L672 0L672 0L616 0L616 0L560 0L560 0L504 0L504 0L448 0L448 0L392 0L392 0L336 0L336 0L280 0L280 0L224 0L224 0L168 0L168 0L112 0L112 0L56 0L56 0L0 0Z" fill="#fff" stroke-linecap="square" stroke-linejoin="miter"></path></svg>