<svg id="visual" viewBox="0 0 1512 100" width="1512" height="100" xmlns="http://www.w3.org/2000/svg" xmlns:xlink="http://www.w3.org/1999/xlink" version="1.1"><path d="M0 69L189 69L189 71L378 71L378 70L567 70L567 64L756 64L756 63L945 63L945 51L1134 51L1134 77L1323 77L1323 54L1512 54L1512 70L1512 0L1512 0L1323 0L1323 0L1134 0L1134 0L945 0L945 0L756 0L756 0L567 0L567 0L378 0L378 0L189 0L189 0L0 0Z" fill="#374151"></path><path d="M0 45L189 45L189 50L378 50L378 40L567 40L567 55L756 55L756 31L945 31L945 33L1134 33L1134 52L1323 52L1323 33L1512 33L1512 38L1512 0L1512 0L1323 0L1323 0L1134 0L1134 0L945 0L945 0L756 0L756 0L567 0L567 0L378 0L378 0L189 0L189 0L0 0Z" fill="#2b3544"></path><path d="M0 12L189 12L189 12L378 12L378 28L567 28L567 19L756 19L756 25L945 25L945 22L1134 22L1134 16L1323 16L1323 35L1512 35L1512 33L1512 0L1512 0L1323 0L1323 0L1134 0L1134 0L945 0L945 0L756 0L756 0L567 0L567 0L378 0L378 0L189 0L189 0L0 0Z" fill="#1f2937"></path></svg>